<?xml version="1.0" standalone="no"?>
<!DOCTYPE svg PUBLIC "-//W3C//DTD SVG 20010904//EN"
 "http://www.w3.org/TR/2001/REC-SVG-20010904/DTD/svg10.dtd">
<svg version="1.0" xmlns="http://www.w3.org/2000/svg"
 width="2000.000000pt" height="1500.000000pt" viewBox="0 0 2000.000000 1500.000000"
 preserveAspectRatio="xMidYMid meet">

<g transform="translate(0.000000,1500.000000) scale(0.100000,-0.100000)"
fill="#000000" stroke="none">
<path d="M11450 13794 c-811 -49 -1611 -258 -2484 -651 -116 -52 -218 -97
-226 -99 -28 -10 125 128 227 205 198 149 455 293 768 431 88 38 174 77 190
85 l30 14 -30 -4 c-738 -107 -1390 -294 -2010 -577 -177 -81 -493 -242 -645
-329 -344 -196 -749 -492 -1130 -825 -170 -148 -648 -625 -806 -804 -456 -515
-832 -1035 -1073 -1482 -46 -85 -56 -97 -74 -93 -31 7 -536 61 -767 82 -283
25 -830 25 -950 0 -94 -20 -174 -59 -201 -97 -44 -61 -41 -219 7 -373 29 -91
120 -289 191 -411 239 -417 699 -985 1173 -1450 l172 -168 -46 -97 c-157 -336
-216 -541 -216 -758 0 -150 24 -254 90 -389 66 -135 148 -244 298 -394 162
-162 187 -200 478 -715 398 -706 637 -1041 882 -1237 57 -46 62 -53 62 -89 0
-85 61 -208 161 -328 109 -129 328 -295 512 -385 427 -211 655 -263 1203 -273
397 -8 603 11 839 77 379 107 788 351 1260 753 219 186 857 837 960 980 l21
28 169 -26 c1131 -176 2243 -605 3480 -1343 547 -327 976 -616 1952 -1314 298
-214 549 -391 557 -394 10 -4 16 -1 16 7 0 8 9 75 19 149 157 1093 31 2088
-384 3025 -312 705 -788 1392 -1539 2223 -81 89 -144 162 -140 162 18 0 211
-110 328 -187 266 -175 448 -326 691 -574 273 -279 538 -620 719 -924 50 -84
53 -76 37 92 -23 233 -81 462 -178 708 -360 909 -1203 1831 -2071 2263 -71 36
-108 59 -99 63 21 12 409 85 572 108 292 41 456 53 832 58 395 6 615 -3 947
-38 440 -46 928 -132 1399 -246 104 -25 191 -43 193 -40 17 17 -277 624 -417
862 -153 261 -341 529 -518 740 -108 129 -367 391 -501 507 -957 829 -2290
1263 -4309 1404 -138 10 -251 21 -251 25 0 10 196 164 331 261 472 339 1210
735 1872 1004 61 25 116 49 120 54 13 12 -252 171 -468 281 -478 245 -956 386
-1505 444 -141 15 -589 27 -720 19z m-2575 -5729 c208 -53 388 -217 505 -459
224 -466 325 -1153 269 -1841 -10 -122 -36 -337 -45 -366 -2 -9 -23 -22 -47
-28 -73 -22 -277 -126 -399 -204 -170 -109 -344 -245 -486 -379 -281 -267
-520 -408 -828 -488 -154 -40 -290 -57 -592 -75 -339 -20 -462 -43 -576 -110
-60 -35 -139 -107 -166 -150 -24 -39 -41 -42 -102 -18 -60 23 -63 27 -37 63
45 61 26 203 -51 382 -30 69 -34 88 -22 84 135 -42 237 -45 349 -12 171 49
307 197 398 435 60 156 102 326 195 791 150 750 257 1098 470 1535 174 358
332 558 563 714 70 48 183 98 267 120 93 25 251 27 335 6z m-4643 -2086 c323
-106 683 -357 1119 -777 l119 -114 0 -58 c0 -192 163 -506 419 -803 14 -17 12
-17 -34 1 -117 46 -193 37 -261 -32 -56 -56 -70 -118 -50 -217 39 -185 179
-334 391 -414 17 -7 13 -10 -25 -23 -32 -11 -84 -16 -176 -17 l-131 0 -86 73
c-185 158 -414 421 -596 685 -50 73 -120 175 -157 227 -245 354 -508 920 -610
1318 -35 136 -41 182 -25 182 6 0 52 -14 103 -31z"/>
<path d="M8215 6676 c-73 -33 -105 -105 -112 -251 -12 -229 62 -520 207 -820
82 -169 168 -295 274 -401 108 -107 165 -139 238 -132 95 10 139 89 146 263
10 239 -69 538 -221 841 -170 339 -404 559 -532 500z"/>
</g>
</svg>
